<svg width="800" height="300" viewBox="0 0 800 300" fill="none" xmlns="http://www.w3.org/2000/svg">
<g clip-path="url(#clip0_2_271)">
<path d="M280.17 83.14H292.68V37.79H310.3V26.87H262.56V37.79H280.17V83.14Z" fill="#F6F6F6"/>
<path d="M328.39 61.06C328.39 59.73 328.68 58.55 329.27 57.51C329.85 56.47 330.65 55.68 331.66 55.12C332.67 54.56 333.84 54.28 335.17 54.28C337.08 54.28 338.66 54.91 339.91 56.15C341.16 57.4 341.78 59.03 341.78 61.05V83.12H353.97V58.34C353.97 55.42 353.35 52.86 352.1 50.65C350.85 48.45 349.08 46.72 346.8 45.47C344.52 44.22 341.86 43.6 338.83 43.6C335.8 43.6 333.22 44.23 330.94 45.47C330 45.99 329.16 46.61 328.39 47.3V25.26H316.2V83.12H328.39V61.05V61.06Z" fill="#F6F6F6"/>
<path d="M369.71 81.42C372.98 83.15 376.71 84.01 380.91 84.01C384.15 84.01 387.13 83.45 389.84 82.34C392.55 81.22 394.86 79.55 396.77 77.32L390.08 70.63C388.91 71.96 387.56 72.95 386.02 73.62C384.48 74.28 382.75 74.62 380.84 74.62C378.77 74.62 376.97 74.18 375.46 73.3C373.95 72.42 372.78 71.18 371.95 69.55C371.68 69.02 371.47 68.43 371.29 67.82L399.01 67.75C399.22 66.74 399.37 65.85 399.45 65.08C399.53 64.31 399.57 63.58 399.57 62.89C399.57 59.12 398.73 55.77 397.06 52.85C395.39 49.93 393.09 47.64 390.17 46C387.25 44.35 383.87 43.53 380.05 43.53C376.23 43.53 372.59 44.41 369.45 46.16C366.31 47.91 363.83 50.32 362 53.37C360.17 56.43 359.25 59.89 359.25 63.77C359.25 67.65 360.18 71.13 362.04 74.21C363.9 77.29 366.46 79.7 369.73 81.42H369.71ZM375.13 54.17C376.54 53.29 378.2 52.85 380.11 52.85C381.92 52.85 383.44 53.24 384.69 54.01C385.94 54.78 386.88 55.9 387.52 57.36C387.79 57.97 387.99 58.66 388.15 59.41L371.27 59.46C371.43 58.91 371.62 58.37 371.86 57.88C372.63 56.29 373.72 55.05 375.13 54.17Z" fill="#F6F6F6"/>
<path d="M434.21 26.87H421.7V83.13H434.21V26.87Z" fill="#F6F6F6"/>
<path d="M460.87 73.6499C460.1 74.0799 459 74.2899 457.56 74.2899C455.49 74.2899 453.58 73.9099 451.82 73.1299C450.07 72.3599 448.55 71.2799 447.28 69.8999L440.35 76.9099C441.68 78.3399 443.29 79.6099 445.17 80.6999C447.06 81.7899 449.1 82.6299 451.31 83.2099C453.51 83.7899 455.76 84.0899 458.04 84.0899C462.87 84.0899 466.71 82.9699 469.56 80.7399C472.4 78.5099 473.82 75.5099 473.82 71.7299C473.82 69.2899 473.37 67.3099 472.47 65.7899C471.57 64.2799 470.4 63.0699 468.96 62.1599C467.53 61.2599 466.01 60.5399 464.42 60.0099C462.83 59.4799 461.31 59.0299 459.88 58.6599C458.45 58.2899 457.28 57.8599 456.37 57.3799C455.47 56.8999 455.02 56.2599 455.02 55.4699C455.02 54.7299 455.36 54.1599 456.06 53.7599C456.75 53.3599 457.79 53.1599 459.17 53.1599C460.55 53.1599 462.08 53.4499 463.59 54.0399C465.1 54.6299 466.47 55.6299 467.69 57.0699L474.62 50.0599C472.87 47.8299 470.6 46.1399 467.81 44.9999C465.02 43.8599 461.98 43.2899 458.69 43.2899C455.4 43.2899 452.82 43.8199 450.48 44.8799C448.14 45.9399 446.34 47.3899 445.06 49.2199C443.78 51.0499 443.15 53.2199 443.15 55.7099C443.15 58.0499 443.6 59.9699 444.5 61.4899C445.4 62.9999 446.57 64.1899 448.01 65.0399C449.44 65.8899 450.96 66.5499 452.55 67.0299C454.14 67.5099 455.66 67.9499 457.09 68.3399C458.52 68.7399 459.71 69.1899 460.64 69.6999C461.57 70.2099 462.04 70.9299 462.04 71.8899C462.04 72.6299 461.65 73.2199 460.88 73.6399L460.87 73.6499Z" fill="#F6F6F6"/>
<path d="M492.63 61.86C492.63 59.36 493.23 57.49 494.42 56.24C495.62 54.99 497.22 54.37 499.24 54.37C500.25 54.37 501.15 54.53 501.95 54.85C502.75 55.17 503.41 55.62 503.94 56.2L511.19 47.04C510.13 45.87 508.89 45.01 507.48 44.45C506.07 43.89 504.44 43.61 502.58 43.61C498.33 43.61 495.01 44.86 492.62 47.36V44.41H480.43V83.14H492.62V61.86H492.63Z" fill="#F6F6F6"/>
<path d="M513.39 74.13C515.01 77.16 517.22 79.55 520 81.3C522.79 83.05 525.96 83.93 529.52 83.93C532.12 83.93 534.49 83.42 536.61 82.42C537.98 81.77 539.17 80.94 540.2 79.96V83.13H552.15V44.4H540.2V47.63C539.15 46.63 537.96 45.78 536.57 45.12C534.47 44.11 532.12 43.61 529.52 43.61C525.96 43.61 522.79 44.49 520 46.24C517.21 47.99 515.01 50.38 513.39 53.41C511.77 56.44 510.96 59.89 510.96 63.77C510.96 67.65 511.77 71.1 513.39 74.13ZM524.47 58.99C525.24 57.61 526.28 56.53 527.58 55.76C528.88 54.99 530.38 54.6 532.08 54.6C533.78 54.6 535.28 54.99 536.58 55.76C537.88 56.53 538.89 57.61 539.61 58.99C540.33 60.37 540.69 61.97 540.69 63.77C540.69 66.43 539.89 68.62 538.3 70.34C536.71 72.07 534.61 72.93 532.01 72.93C530.36 72.93 528.87 72.53 527.55 71.73C526.22 70.93 525.19 69.84 524.44 68.46C523.69 67.08 523.32 65.51 523.32 63.76C523.32 62.01 523.7 60.36 524.48 58.98L524.47 58.99Z" fill="#F6F6F6"/>
<path d="M595.75 77.32L589.06 70.63C587.89 71.96 586.54 72.95 585 73.62C583.46 74.28 581.73 74.62 579.82 74.62C577.75 74.62 575.96 74.18 574.44 73.3C572.93 72.42 571.76 71.18 570.93 69.55C570.66 69.02 570.451 68.43 570.271 67.82L597.99 67.75C598.2 66.74 598.35 65.85 598.43 65.08C598.51 64.31 598.55 63.58 598.55 62.89C598.55 59.12 597.71 55.77 596.04 52.85C594.37 49.93 592.071 47.64 589.151 46C586.231 44.35 582.851 43.53 579.031 43.53C575.211 43.53 571.56 44.41 568.43 46.16C565.29 47.91 562.81 50.32 560.98 53.37C559.15 56.43 558.23 59.89 558.23 63.77C558.23 67.65 559.161 71.13 561.021 74.21C562.881 77.29 565.441 79.7 568.711 81.42C571.981 83.15 575.71 84.01 579.91 84.01C583.15 84.01 586.131 83.45 588.841 82.34C591.551 81.22 593.861 79.55 595.771 77.32H595.75ZM574.11 54.17C575.52 53.29 577.181 52.85 579.091 52.85C580.901 52.85 582.42 53.24 583.67 54.01C584.92 54.78 585.86 55.9 586.5 57.36C586.77 57.97 586.97 58.66 587.13 59.41L570.25 59.46C570.41 58.91 570.601 58.37 570.841 57.88C571.611 56.29 572.7 55.05 574.11 54.17Z" fill="#F6F6F6"/>
<path d="M616.63 25.28H604.44V83.14H616.63V25.28Z" fill="#F6F6F6"/>
<path d="M306.39 133.26V122.5H278.9H275.95H266.39V178.77H275.95H278.9H306.79V167.93H278.9V155.26H304V144.82H278.9V133.26H306.39Z" fill="#F6F6F6"/>
<path d="M320.7 176.93C323.54 178.68 326.8 179.56 330.46 179.56C333.12 179.56 335.53 179.01 337.71 177.93C338.86 177.36 339.89 176.67 340.82 175.89V178.77H352.77V120.91H340.58V142.53C339.7 141.85 338.73 141.25 337.67 140.75C335.52 139.74 333.11 139.24 330.46 139.24C326.79 139.24 323.54 140.12 320.7 141.87C317.86 143.62 315.63 146.01 314.01 149.04C312.39 152.07 311.58 155.52 311.58 159.4C311.58 163.28 312.39 166.73 314.01 169.76C315.63 172.79 317.86 175.18 320.7 176.93ZM325.08 154.7C325.85 153.32 326.89 152.23 328.19 151.43C329.49 150.63 330.99 150.23 332.69 150.23C334.39 150.23 335.89 150.63 337.19 151.43C338.49 152.23 339.5 153.3 340.22 154.66C340.94 156.01 341.3 157.6 341.3 159.4C341.3 161.2 340.93 162.8 340.18 164.18C339.44 165.56 338.43 166.64 337.15 167.41C335.88 168.18 334.36 168.57 332.61 168.57C330.96 168.57 329.47 168.17 328.15 167.38C326.82 166.58 325.79 165.49 325.04 164.11C324.3 162.73 323.92 161.16 323.92 159.41C323.92 157.66 324.3 156.09 325.08 154.71V154.7Z" fill="#F6F6F6"/>
<path d="M360.42 140.04V162.51C360.42 165.86 361.19 168.82 362.73 171.4C364.27 173.98 366.41 176 369.15 177.46C371.89 178.92 375.03 179.65 378.59 179.65C382.15 179.65 385.28 178.92 387.99 177.46C390.7 176 392.82 173.98 394.36 171.4C395.9 168.82 396.67 165.84 396.67 162.43V140.04H384.48V162.35C384.48 164.37 383.95 165.95 382.89 167.09C381.83 168.23 380.39 168.8 378.59 168.8C377.32 168.8 376.23 168.53 375.32 168C374.42 167.47 373.74 166.72 373.29 165.77C372.84 164.81 372.61 163.67 372.61 162.34V140.03H360.42V140.04Z" fill="#F6F6F6"/>
<path d="M412.22 177.01C415.46 178.76 419.07 179.64 423.06 179.64C426.19 179.64 429.04 179.09 431.59 178.01C434.14 176.92 436.42 175.31 438.44 173.19L430.71 165.38C429.81 166.39 428.73 167.17 427.48 167.73C426.23 168.29 424.81 168.57 423.22 168.57C421.52 168.57 419.98 168.17 418.6 167.38C417.22 166.58 416.14 165.49 415.37 164.11C414.6 162.73 414.22 161.14 414.22 159.33C414.22 157.52 414.6 155.94 415.37 154.59C416.14 153.24 417.2 152.17 418.56 151.4C419.91 150.63 421.47 150.24 423.22 150.24C424.76 150.24 426.13 150.48 427.32 150.96C428.51 151.44 429.56 152.18 430.47 153.19L438.28 145.38C436.31 143.31 434.07 141.75 431.55 140.72C429.03 139.68 426.25 139.17 423.22 139.17C419.18 139.17 415.54 140.05 412.3 141.8C409.06 143.55 406.49 145.96 404.61 149.01C402.72 152.07 401.78 155.53 401.78 159.41C401.78 163.29 402.71 166.69 404.57 169.77C406.43 172.85 408.98 175.27 412.22 177.02V177.01Z" fill="#F6F6F6"/>
<path d="M481.71 178.77V140.04H469.76V143.27C468.71 142.27 467.52 141.42 466.13 140.76C464.03 139.75 461.68 139.25 459.08 139.25C455.52 139.25 452.35 140.13 449.56 141.88C446.77 143.63 444.57 146.02 442.95 149.05C441.33 152.08 440.52 155.53 440.52 159.41C440.52 163.29 441.33 166.74 442.95 169.77C444.57 172.8 446.78 175.19 449.56 176.94C452.35 178.69 455.52 179.57 459.08 179.57C461.68 179.57 464.05 179.06 466.17 178.06C467.54 177.41 468.73 176.58 469.76 175.6V178.77H481.71ZM461.55 168.57C459.9 168.57 458.41 168.17 457.09 167.38C455.76 166.58 454.73 165.49 453.98 164.11C453.23 162.73 452.86 161.16 452.86 159.41C452.86 157.66 453.24 156.01 454.02 154.63C454.79 153.25 455.83 152.17 457.13 151.4C458.43 150.63 459.93 150.24 461.63 150.24C463.33 150.24 464.83 150.63 466.13 151.4C467.43 152.17 468.44 153.25 469.16 154.63C469.88 156.01 470.24 157.61 470.24 159.41C470.24 162.07 469.44 164.26 467.85 165.98C466.26 167.71 464.16 168.57 461.56 168.57H461.55Z" fill="#F6F6F6"/>
<path d="M508.01 178.77V150.4H516.78V140.04H508.01V124.02H495.82V140.04H487.05V150.4H495.82V178.77H508.01Z" fill="#F6F6F6"/>
<path d="M534.31 140.04H522.12V178.77H534.31V140.04Z" fill="#F6F6F6"/>
<path d="M532.96 123.22C531.74 121.94 530.17 121.31 528.26 121.31C526.35 121.31 524.77 121.95 523.52 123.22C522.27 124.49 521.65 126.09 521.65 128C521.65 129.91 522.27 131.44 523.52 132.74C524.77 134.04 526.35 134.69 528.26 134.69C530.17 134.69 531.74 134.04 532.96 132.74C534.18 131.44 534.79 129.86 534.79 128C534.79 126.14 534.18 124.49 532.96 123.22Z" fill="#F6F6F6"/>
<path d="M572.4 141.79C569.21 140.04 565.6 139.16 561.56 139.16C557.52 139.16 553.91 140.05 550.72 141.83C547.53 143.61 545.01 146.01 543.15 149.04C541.29 152.07 540.36 155.49 540.36 159.32C540.36 163.15 541.29 166.6 543.15 169.68C545.01 172.76 547.55 175.19 550.76 176.97C553.97 178.75 557.57 179.64 561.56 179.64C565.55 179.64 569.21 178.75 572.4 176.97C575.59 175.19 578.11 172.76 579.97 169.68C581.83 166.6 582.76 163.15 582.76 159.32C582.76 155.49 581.83 152.06 579.97 149C578.11 145.95 575.59 143.54 572.4 141.79ZM569.25 164.14C568.53 165.55 567.51 166.64 566.18 167.41C564.85 168.18 563.31 168.57 561.56 168.57C559.81 168.57 558.35 168.19 557.02 167.41C555.69 166.64 554.66 165.55 553.91 164.14C553.16 162.73 552.79 161.15 552.79 159.4C552.79 157.65 553.16 156 553.91 154.62C554.65 153.24 555.69 152.16 557.02 151.39C558.35 150.62 559.86 150.23 561.56 150.23C563.26 150.23 564.84 150.62 566.14 151.39C567.44 152.16 568.46 153.22 569.21 154.58C569.95 155.94 570.33 157.52 570.33 159.32C570.33 161.12 569.97 162.73 569.25 164.14Z" fill="#F6F6F6"/>
<path d="M619.46 141.27C617.25 139.91 614.72 139.24 611.85 139.24C608.98 139.24 606.2 139.87 603.84 141.11C602.79 141.67 601.86 142.34 601.01 143.1V140.04H588.82V178.77H601.01V156.69C601.01 155.36 601.3 154.18 601.89 153.14C602.47 152.1 603.27 151.31 604.28 150.75C605.29 150.19 606.46 149.91 607.79 149.91C609.7 149.91 611.28 150.53 612.53 151.78C613.78 153.03 614.4 154.66 614.4 156.68V178.76H626.59V153.98C626.59 151.32 625.95 148.88 624.68 146.65C623.41 144.42 621.66 142.63 619.46 141.27Z" fill="#F6F6F6"/>
<path d="M661.26 143.26C660.21 142.26 659.02 141.41 657.63 140.75C655.53 139.74 653.18 139.24 650.58 139.24C647.02 139.24 643.85 140.12 641.06 141.87C638.27 143.62 636.07 146.01 634.45 149.04C632.83 152.07 632.02 155.52 632.02 159.4C632.02 163.28 632.83 166.73 634.45 169.76C636.07 172.79 638.28 175.18 641.06 176.93C643.85 178.68 647.02 179.56 650.58 179.56C653.18 179.56 655.549 179.05 657.669 178.05C659.039 177.4 660.23 176.57 661.26 175.59V178.76H673.21V140.03H661.26V143.26ZM653.049 168.57C651.399 168.57 649.91 168.17 648.59 167.38C647.26 166.58 646.229 165.49 645.479 164.11C644.729 162.73 644.359 161.16 644.359 159.41C644.359 157.66 644.74 156.01 645.52 154.63C646.29 153.25 647.33 152.17 648.63 151.4C649.93 150.63 651.43 150.24 653.13 150.24C654.83 150.24 656.33 150.63 657.63 151.4C658.93 152.17 659.939 153.25 660.659 154.63C661.379 156.01 661.74 157.61 661.74 159.41C661.74 162.07 660.939 164.26 659.349 165.98C657.759 167.71 655.66 168.57 653.06 168.57H653.049Z" fill="#F6F6F6"/>
<path d="M694.01 120.91H681.82V178.77H694.01V120.91Z" fill="#F6F6F6"/>
<path d="M310.3 229.05V218.13H262.56V229.05H280.17V274.4H292.68V229.05H310.3Z" fill="#F6F6F6"/>
<path d="M335.52 235.71C334.11 235.15 332.48 234.87 330.62 234.87C326.37 234.87 323.05 236.12 320.66 238.62V235.67H308.47V274.4H320.66V253.12C320.66 250.62 321.26 248.75 322.45 247.5C323.64 246.25 325.25 245.63 327.27 245.63C328.28 245.63 329.18 245.79 329.98 246.11C330.78 246.43 331.44 246.88 331.97 247.46L339.22 238.3C338.16 237.13 336.92 236.27 335.51 235.71H335.52Z" fill="#F6F6F6"/>
<path d="M368.23 238.89C367.18 237.89 365.98 237.04 364.6 236.38C362.5 235.37 360.15 234.87 357.55 234.87C353.99 234.87 350.82 235.75 348.03 237.5C345.24 239.25 343.04 241.64 341.42 244.67C339.8 247.7 338.99 251.15 338.99 255.03C338.99 258.91 339.8 262.36 341.42 265.39C343.04 268.42 345.25 270.81 348.03 272.56C350.82 274.31 353.99 275.19 357.55 275.19C360.15 275.19 362.52 274.68 364.64 273.68C366.01 273.03 367.2 272.2 368.23 271.22V274.39H380.18V235.66H368.23V238.89ZM360.02 264.2C358.37 264.2 356.88 263.8 355.56 263.01C354.23 262.21 353.19 261.12 352.45 259.74C351.71 258.36 351.33 256.79 351.33 255.04C351.33 253.29 351.71 251.64 352.49 250.26C353.26 248.88 354.3 247.8 355.6 247.03C356.9 246.26 358.4 245.87 360.1 245.87C361.8 245.87 363.3 246.26 364.6 247.03C365.9 247.8 366.91 248.88 367.63 250.26C368.35 251.64 368.71 253.24 368.71 255.04C368.71 257.7 367.91 259.89 366.32 261.61C364.73 263.34 362.63 264.2 360.02 264.2Z" fill="#F6F6F6"/>
<path d="M406.01 259.64L397.72 235.67H384.57L400.99 274.4L410.79 274.32L427.2 235.67H414.29L406.01 259.64Z" fill="#F6F6F6"/>
<path d="M458.92 237.26C456 235.61 452.62 234.79 448.8 234.79C444.98 234.79 441.33 235.67 438.2 237.42C435.06 239.17 432.58 241.58 430.75 244.63C428.92 247.69 428 251.15 428 255.03C428 258.91 428.93 262.39 430.79 265.47C432.65 268.55 435.21 270.96 438.48 272.68C441.75 274.41 445.48 275.27 449.68 275.27C452.92 275.27 455.9 274.71 458.61 273.6C461.32 272.48 463.63 270.81 465.54 268.58L458.85 261.89C457.68 263.22 456.33 264.21 454.79 264.88C453.25 265.54 451.52 265.88 449.61 265.88C447.54 265.88 445.75 265.44 444.23 264.56C442.72 263.68 441.55 262.44 440.72 260.81C440.45 260.28 440.24 259.69 440.06 259.08L467.78 259.01C467.99 258 468.14 257.11 468.22 256.34C468.3 255.57 468.34 254.84 468.34 254.15C468.34 250.38 467.5 247.03 465.83 244.11C464.16 241.19 461.86 238.9 458.94 237.26H458.92ZM443.9 245.43C445.31 244.55 446.97 244.12 448.88 244.12C450.69 244.12 452.21 244.51 453.46 245.28C454.71 246.05 455.65 247.17 456.29 248.63C456.56 249.24 456.76 249.93 456.92 250.68L440.04 250.73C440.2 250.18 440.39 249.64 440.63 249.15C441.4 247.56 442.49 246.32 443.9 245.44V245.43Z" fill="#F6F6F6"/>
<path d="M486.41 216.54H474.22V274.4H486.41V216.54Z" fill="#F6F6F6"/>
<path d="M529.37 218.13L507.06 274.39H520.05L523.79 264.19H545.84L549.53 274.39H562.76L540.69 218.13H529.37ZM527.53 254L534.89 233.93L542.15 254H527.53Z" fill="#F6F6F6"/>
<path d="M580.45 216.54H568.26V274.4H580.45V216.54Z" fill="#F6F6F6"/>
<path d="M601.25 216.54H589.06V274.4H601.25V216.54Z" fill="#F6F6F6"/>
<path d="M615.99 216.94C614.08 216.94 612.5 217.58 611.25 218.85C610 220.12 609.38 221.72 609.38 223.63C609.38 225.54 610 227.07 611.25 228.37C612.5 229.67 614.08 230.32 615.99 230.32C617.9 230.32 619.47 229.67 620.69 228.37C621.91 227.07 622.52 225.49 622.52 223.63C622.52 221.77 621.91 220.12 620.69 218.85C619.47 217.58 617.9 216.94 615.99 216.94Z" fill="#F6F6F6"/>
<path d="M622.05 235.67H609.86V274.4H622.05V235.67Z" fill="#F6F6F6"/>
<path d="M657.51 238.89C656.46 237.89 655.27 237.04 653.88 236.38C651.78 235.37 649.43 234.87 646.83 234.87C643.27 234.87 640.1 235.75 637.31 237.5C634.52 239.25 632.32 241.64 630.7 244.67C629.08 247.7 628.27 251.15 628.27 255.03C628.27 258.91 629.08 262.36 630.7 265.39C632.32 268.42 634.53 270.81 637.31 272.56C640.1 274.31 643.27 275.19 646.83 275.19C649.43 275.19 651.799 274.68 653.919 273.68C655.289 273.03 656.48 272.2 657.51 271.22V274.39H669.46V235.66H657.51V238.89ZM649.299 264.2C647.649 264.2 646.16 263.8 644.84 263.01C643.51 262.21 642.479 261.12 641.729 259.74C640.979 258.36 640.609 256.79 640.609 255.04C640.609 253.29 640.99 251.64 641.77 250.26C642.54 248.88 643.58 247.8 644.88 247.03C646.18 246.26 647.68 245.87 649.38 245.87C651.08 245.87 652.58 246.26 653.88 247.03C655.18 247.8 656.189 248.88 656.909 250.26C657.629 251.64 657.99 253.24 657.99 255.04C657.99 257.7 657.189 259.89 655.599 261.61C654.009 263.34 651.91 264.2 649.31 264.2H649.299Z" fill="#F6F6F6"/>
<path d="M708.71 236.9C706.5 235.55 703.97 234.87 701.1 234.87C698.23 234.87 695.45 235.49 693.09 236.74C692.04 237.3 691.11 237.97 690.26 238.73V235.66H678.07V274.39H690.26V252.32C690.26 250.99 690.55 249.81 691.14 248.77C691.72 247.73 692.52 246.94 693.53 246.38C694.54 245.82 695.71 245.54 697.04 245.54C698.95 245.54 700.53 246.16 701.78 247.41C703.03 248.66 703.65 250.29 703.65 252.31V274.38H715.84V249.6C715.84 246.94 715.2 244.5 713.93 242.27C712.66 240.04 710.91 238.25 708.71 236.89V236.9Z" fill="#F6F6F6"/>
<path d="M746.81 263.36C745.56 263.92 744.14 264.2 742.55 264.2C740.85 264.2 739.31 263.8 737.93 263.01C736.55 262.21 735.47 261.12 734.7 259.74C733.93 258.36 733.54 256.77 733.54 254.96C733.54 253.15 733.92 251.57 734.7 250.22C735.47 248.87 736.53 247.8 737.89 247.03C739.24 246.26 740.8 245.87 742.55 245.87C744.09 245.87 745.46 246.11 746.65 246.59C747.85 247.07 748.89 247.81 749.8 248.82L757.61 241.01C755.64 238.94 753.4 237.38 750.88 236.35C748.36 235.31 745.58 234.8 742.55 234.8C738.51 234.8 734.87 235.68 731.63 237.43C728.39 239.18 725.83 241.59 723.94 244.64C722.05 247.7 721.11 251.16 721.11 255.04C721.11 258.92 722.04 262.32 723.9 265.4C725.76 268.48 728.31 270.9 731.55 272.65C734.79 274.4 738.4 275.28 742.39 275.28C745.52 275.28 748.37 274.73 750.92 273.65C753.47 272.56 755.75 270.95 757.77 268.83L750.04 261.02C749.14 262.03 748.06 262.81 746.81 263.37V263.36Z" fill="#F6F6F6"/>
<path d="M797.49 244.11C795.82 241.19 793.52 238.9 790.6 237.26C787.68 235.61 784.3 234.79 780.48 234.79C776.66 234.79 773.01 235.67 769.88 237.42C766.74 239.17 764.26 241.58 762.43 244.63C760.6 247.69 759.68 251.15 759.68 255.03C759.68 258.91 760.61 262.39 762.47 265.47C764.33 268.55 766.89 270.96 770.16 272.68C773.43 274.41 777.16 275.27 781.36 275.27C784.6 275.27 787.58 274.71 790.29 273.6C793 272.48 795.31 270.81 797.22 268.58L790.53 261.89C789.36 263.22 788.01 264.21 786.47 264.88C784.93 265.54 783.2 265.88 781.29 265.88C779.22 265.88 777.43 265.44 775.91 264.56C774.4 263.68 773.23 262.44 772.4 260.81C772.13 260.28 771.92 259.69 771.74 259.08L799.46 259.01C799.67 258 799.82 257.11 799.9 256.34C799.98 255.57 800.02 254.84 800.02 254.15C800.02 250.38 799.18 247.03 797.51 244.11H797.49ZM775.57 245.43C776.98 244.55 778.64 244.12 780.55 244.12C782.36 244.12 783.88 244.51 785.13 245.28C786.38 246.05 787.32 247.17 787.96 248.63C788.23 249.24 788.43 249.93 788.59 250.68L771.71 250.73C771.87 250.18 772.06 249.64 772.3 249.15C773.07 247.56 774.16 246.32 775.57 245.44V245.43Z" fill="#F6F6F6"/>
<path d="M102.98 0.849976C46.2 0.849976 0 47.05 0 103.83V196.72C0 253.51 46.2 299.7 102.98 299.7C159.76 299.7 205.96 253.5 205.96 196.72V103.83C205.96 47.05 159.76 0.849976 102.98 0.849976ZM200.32 196.72C200.32 250.4 156.65 294.06 102.98 294.06C49.31 294.06 5.64 250.4 5.64 196.72V103.83C5.64 50.15 49.3 6.48998 102.98 6.48998C156.66 6.48998 200.32 50.16 200.32 103.83V196.72Z" fill="#F6F6F6"/>
<path d="M102.98 15.02C54.0099 15.02 14.1699 54.86 14.1699 103.83V196.72C14.1699 245.69 54.0099 285.53 102.98 285.53C151.95 285.53 191.79 245.69 191.79 196.72V103.83C191.79 54.86 151.95 15.02 102.98 15.02ZM83.3099 160.97L27.4399 122.35C52.5499 121.37 75.3999 137.26 83.3099 160.97ZM82.2599 167.09C71.2699 167.83 60.4399 165.35 50.8599 159.94L64.3799 154.73L82.2499 167.09H82.2599ZM58.7699 150.86L44.9999 156.16C35.0799 148.85 27.9499 138.74 24.4299 127.11L58.7699 150.85V150.86ZM100.16 206.18V243.14H88.4999C86.6499 236.71 78.5699 232.01 68.5899 232.01C57.1999 232.01 48.2799 238.14 48.2799 245.96C48.2799 253.78 57.1999 259.91 68.5899 259.91C78.5699 259.91 86.6499 255.2 88.4999 248.78H100.16V279.84C55.5999 278.35 19.7999 241.64 19.7999 196.72V131.08C23.9699 143.14 31.7299 153.6 42.3099 161.19C42.5099 161.34 42.7199 161.47 42.9299 161.62C42.9799 161.66 43.0299 161.69 43.0799 161.72C53.5999 169.03 65.8499 172.86 78.4499 172.86C81.8599 172.86 85.2899 172.58 88.7099 172.02L88.9299 171.72L100.16 179.48V206.19V206.18ZM83.2699 245.97C83.2699 250.48 76.5499 254.28 68.5899 254.28C60.6299 254.28 53.9099 250.47 53.9099 245.97C53.9099 241.47 60.6299 237.66 68.5899 237.66C76.5499 237.66 83.2699 241.47 83.2699 245.97ZM100.16 120.78V172.62L90.4999 165.94C87.2799 150.72 78.6099 137.43 65.8799 128.31C61.5099 125.18 56.8199 122.66 51.9299 120.78H100.16ZM84.9699 100.74C83.4099 100.74 82.1499 99.48 82.1499 97.92C82.1499 96.36 83.4099 95.1 84.9699 95.1H121C122.56 95.1 123.82 96.36 123.82 97.92C123.82 99.48 122.56 100.74 121 100.74H84.9699ZM186.16 196.72C186.16 241.64 150.37 278.35 105.8 279.84V226.51H116.87C118.72 232.94 126.8 237.64 136.78 237.64C148.17 237.64 157.09 231.51 157.09 223.69C157.09 215.87 148.17 209.74 136.78 209.74C126.8 209.74 118.72 214.45 116.87 220.87H105.8V207.62L117.03 199.86L117.25 200.16C120.68 200.73 124.11 201 127.52 201C140.11 201 152.36 197.17 162.89 189.86C162.94 189.83 162.99 189.79 163.04 189.76C163.25 189.62 163.46 189.48 163.66 189.33C174.24 181.74 182 171.28 186.17 159.22V196.7L186.16 196.72ZM122.1 223.7C122.1 219.19 128.82 215.39 136.78 215.39C144.74 215.39 151.46 219.2 151.46 223.7C151.46 228.2 144.74 232.01 136.78 232.01C128.82 232.01 122.1 228.2 122.1 223.7ZM147.19 179.02L181.53 155.28C178.01 166.9 170.88 177.02 160.96 184.33L147.19 179.03V179.02ZM155.1 188.11C145.52 193.51 134.69 195.99 123.7 195.26L141.57 182.9L155.09 188.11H155.1ZM122.65 189.13C130.56 165.42 153.4 149.53 178.52 150.51L122.65 189.13ZM186.16 145.6C153.36 140.36 122.31 161.9 115.47 194.1L105.81 200.78V120.78H186.17V145.6H186.16Z" fill="#F6F6F6"/>
</g>
<defs>
<clipPath id="clip0_2_271">
<rect width="800" height="298.85" fill="white" transform="translate(0 0.849976)"/>
</clipPath>
</defs>
</svg>
