<svg width="800" height="299" viewBox="0 0 800 299" fill="none" xmlns="http://www.w3.org/2000/svg">
<g clip-path="url(#clip0_2_269)">
<path d="M280.17 82.29H292.68V36.94H310.3V26.02H262.56V36.94H280.17V82.29Z" fill="#27277C"/>
<path d="M328.39 60.21C328.39 58.88 328.68 57.7 329.27 56.66C329.85 55.62 330.65 54.83 331.66 54.27C332.67 53.71 333.84 53.43 335.17 53.43C337.08 53.43 338.66 54.06 339.91 55.3C341.16 56.55 341.78 58.18 341.78 60.2V82.27H353.97V57.49C353.97 54.57 353.35 52.01 352.1 49.8C350.85 47.6 349.08 45.87 346.8 44.62C344.52 43.37 341.86 42.75 338.83 42.75C335.8 42.75 333.22 43.38 330.94 44.62C330 45.14 329.16 45.76 328.39 46.45V24.41H316.2V82.27H328.39V60.2V60.21Z" fill="#27277C"/>
<path d="M369.71 80.5701C372.98 82.3001 376.71 83.1601 380.91 83.1601C384.15 83.1601 387.13 82.6001 389.84 81.4901C392.55 80.3701 394.86 78.7001 396.77 76.4701L390.08 69.7801C388.91 71.1101 387.56 72.1 386.02 72.7701C384.48 73.43 382.75 73.7701 380.84 73.7701C378.77 73.7701 376.97 73.33 375.46 72.4501C373.95 71.5701 372.78 70.33 371.95 68.7001C371.68 68.17 371.47 67.5801 371.29 66.9701L399.01 66.9001C399.22 65.8901 399.37 65.0001 399.45 64.2301C399.53 63.4601 399.57 62.7301 399.57 62.0401C399.57 58.2701 398.73 54.9201 397.06 52.0001C395.39 49.0801 393.09 46.7901 390.17 45.1501C387.25 43.5001 383.87 42.6801 380.05 42.6801C376.23 42.6801 372.59 43.5601 369.45 45.3101C366.31 47.0601 363.83 49.4701 362 52.5201C360.17 55.5801 359.25 59.0401 359.25 62.9201C359.25 66.8001 360.18 70.2801 362.04 73.3601C363.9 76.4401 366.46 78.8501 369.73 80.5701H369.71ZM375.13 53.3201C376.54 52.4401 378.2 52.0001 380.11 52.0001C381.92 52.0001 383.44 52.3901 384.69 53.1601C385.94 53.9301 386.88 55.0501 387.52 56.5101C387.79 57.1201 387.99 57.8101 388.15 58.5601L371.27 58.6101C371.43 58.0601 371.62 57.5201 371.86 57.0301C372.63 55.4401 373.72 54.2001 375.13 53.3201Z" fill="#27277C"/>
<path d="M434.21 26.02H421.7V82.28H434.21V26.02Z" fill="#27277C"/>
<path d="M460.87 72.7999C460.1 73.2299 459 73.4399 457.56 73.4399C455.49 73.4399 453.58 73.0599 451.82 72.2799C450.07 71.5099 448.55 70.4299 447.28 69.0499L440.35 76.0599C441.68 77.4899 443.29 78.7599 445.17 79.8499C447.06 80.9399 449.1 81.7799 451.31 82.3599C453.51 82.9399 455.76 83.2399 458.04 83.2399C462.87 83.2399 466.71 82.1199 469.56 79.8899C472.4 77.6599 473.82 74.6599 473.82 70.8799C473.82 68.4399 473.37 66.4599 472.47 64.9399C471.57 63.4299 470.4 62.2199 468.96 61.3099C467.53 60.4099 466.01 59.6899 464.42 59.1599C462.83 58.6299 461.31 58.1799 459.88 57.8099C458.45 57.4399 457.28 57.0099 456.37 56.5299C455.47 56.0499 455.02 55.4099 455.02 54.6199C455.02 53.8799 455.36 53.3099 456.06 52.9099C456.75 52.5099 457.79 52.3099 459.17 52.3099C460.55 52.3099 462.08 52.5999 463.59 53.1899C465.1 53.7799 466.47 54.7799 467.69 56.2199L474.62 49.2099C472.87 46.9799 470.6 45.2899 467.81 44.1499C465.02 43.0099 461.98 42.4399 458.69 42.4399C455.4 42.4399 452.82 42.9699 450.48 44.0299C448.14 45.0899 446.34 46.5399 445.06 48.3699C443.78 50.1999 443.15 52.3699 443.15 54.8599C443.15 57.1999 443.6 59.1199 444.5 60.6399C445.4 62.1499 446.57 63.3399 448.01 64.1899C449.44 65.0399 450.96 65.6999 452.55 66.1799C454.14 66.6599 455.66 67.0999 457.09 67.4899C458.52 67.8899 459.71 68.3399 460.64 68.8499C461.57 69.3599 462.04 70.0799 462.04 71.0399C462.04 71.7799 461.65 72.3699 460.88 72.7899L460.87 72.7999Z" fill="#27277C"/>
<path d="M492.63 61.01C492.63 58.51 493.23 56.64 494.42 55.39C495.62 54.14 497.22 53.52 499.24 53.52C500.25 53.52 501.15 53.68 501.95 54C502.75 54.32 503.41 54.77 503.94 55.35L511.19 46.19C510.13 45.02 508.89 44.16 507.48 43.6C506.07 43.04 504.44 42.76 502.58 42.76C498.33 42.76 495.01 44.01 492.62 46.51V43.56H480.43V82.29H492.62V61.01H492.63Z" fill="#27277C"/>
<path d="M513.39 73.28C515.01 76.31 517.22 78.7 520 80.45C522.79 82.2 525.96 83.08 529.52 83.08C532.12 83.08 534.49 82.57 536.61 81.57C537.98 80.92 539.17 80.09 540.2 79.11V82.28H552.15V43.55H540.2V46.78C539.15 45.78 537.96 44.93 536.57 44.27C534.47 43.26 532.12 42.76 529.52 42.76C525.96 42.76 522.79 43.64 520 45.39C517.21 47.14 515.01 49.53 513.39 52.56C511.77 55.59 510.96 59.04 510.96 62.92C510.96 66.8 511.77 70.25 513.39 73.28ZM524.47 58.14C525.24 56.76 526.28 55.68 527.58 54.91C528.88 54.14 530.38 53.75 532.08 53.75C533.78 53.75 535.28 54.14 536.58 54.91C537.88 55.68 538.89 56.76 539.61 58.14C540.33 59.52 540.69 61.12 540.69 62.92C540.69 65.58 539.89 67.77 538.3 69.49C536.71 71.22 534.61 72.08 532.01 72.08C530.36 72.08 528.87 71.68 527.55 70.88C526.22 70.08 525.19 68.99 524.44 67.61C523.69 66.23 523.32 64.66 523.32 62.91C523.32 61.16 523.7 59.51 524.48 58.13L524.47 58.14Z" fill="#27277C"/>
<path d="M595.75 76.4701L589.06 69.7801C587.89 71.1101 586.54 72.1 585 72.7701C583.46 73.43 581.73 73.7701 579.82 73.7701C577.75 73.7701 575.96 73.33 574.44 72.4501C572.93 71.5701 571.76 70.33 570.93 68.7001C570.66 68.17 570.451 67.5801 570.271 66.9701L597.99 66.9001C598.2 65.8901 598.35 65.0001 598.43 64.2301C598.51 63.4601 598.55 62.7301 598.55 62.0401C598.55 58.2701 597.71 54.9201 596.04 52.0001C594.37 49.0801 592.071 46.7901 589.151 45.1501C586.231 43.5001 582.851 42.6801 579.031 42.6801C575.211 42.6801 571.56 43.5601 568.43 45.3101C565.29 47.0601 562.81 49.4701 560.98 52.5201C559.15 55.5801 558.23 59.0401 558.23 62.9201C558.23 66.8001 559.161 70.2801 561.021 73.3601C562.881 76.4401 565.441 78.8501 568.711 80.5701C571.981 82.3001 575.71 83.1601 579.91 83.1601C583.15 83.1601 586.131 82.6001 588.841 81.4901C591.551 80.3701 593.861 78.7001 595.771 76.4701H595.75ZM574.11 53.3201C575.52 52.4401 577.181 52.0001 579.091 52.0001C580.901 52.0001 582.42 52.3901 583.67 53.1601C584.92 53.9301 585.86 55.0501 586.5 56.5101C586.77 57.1201 586.97 57.8101 587.13 58.5601L570.25 58.6101C570.41 58.0601 570.601 57.5201 570.841 57.0301C571.611 55.4401 572.7 54.2001 574.11 53.3201Z" fill="#27277C"/>
<path d="M616.63 24.4301H604.44V82.2901H616.63V24.4301Z" fill="#27277C"/>
<path d="M306.39 132.41V121.65H278.9H275.95H266.39V177.92H275.95H278.9H306.79V167.08H278.9V154.41H304V143.97H278.9V132.41H306.39Z" fill="#27277C"/>
<path d="M320.7 176.08C323.54 177.83 326.8 178.71 330.46 178.71C333.12 178.71 335.53 178.16 337.71 177.08C338.86 176.51 339.89 175.82 340.82 175.04V177.92H352.77V120.06H340.58V141.68C339.7 141 338.73 140.4 337.67 139.9C335.52 138.89 333.11 138.39 330.46 138.39C326.79 138.39 323.54 139.27 320.7 141.02C317.86 142.77 315.63 145.16 314.01 148.19C312.39 151.22 311.58 154.67 311.58 158.55C311.58 162.43 312.39 165.88 314.01 168.91C315.63 171.94 317.86 174.33 320.7 176.08ZM325.08 153.85C325.85 152.47 326.89 151.38 328.19 150.58C329.49 149.78 330.99 149.38 332.69 149.38C334.39 149.38 335.89 149.78 337.19 150.58C338.49 151.38 339.5 152.45 340.22 153.81C340.94 155.16 341.3 156.75 341.3 158.55C341.3 160.35 340.93 161.95 340.18 163.33C339.44 164.71 338.43 165.79 337.15 166.56C335.88 167.33 334.36 167.72 332.61 167.72C330.96 167.72 329.47 167.32 328.15 166.53C326.82 165.73 325.79 164.64 325.04 163.26C324.3 161.88 323.92 160.31 323.92 158.56C323.92 156.81 324.3 155.24 325.08 153.86V153.85Z" fill="#27277C"/>
<path d="M360.42 139.19V161.66C360.42 165.01 361.19 167.97 362.73 170.55C364.27 173.13 366.41 175.15 369.15 176.61C371.89 178.07 375.03 178.8 378.59 178.8C382.15 178.8 385.28 178.07 387.99 176.61C390.7 175.15 392.82 173.13 394.36 170.55C395.9 167.97 396.67 164.99 396.67 161.58V139.19H384.48V161.5C384.48 163.52 383.95 165.1 382.89 166.24C381.83 167.38 380.39 167.95 378.59 167.95C377.32 167.95 376.23 167.68 375.32 167.15C374.42 166.62 373.74 165.87 373.29 164.92C372.84 163.96 372.61 162.82 372.61 161.49V139.18H360.42V139.19Z" fill="#27277C"/>
<path d="M412.22 176.16C415.46 177.91 419.07 178.79 423.06 178.79C426.19 178.79 429.04 178.24 431.59 177.16C434.14 176.07 436.42 174.46 438.44 172.34L430.71 164.53C429.81 165.54 428.73 166.32 427.48 166.88C426.23 167.44 424.81 167.72 423.22 167.72C421.52 167.72 419.98 167.32 418.6 166.53C417.22 165.73 416.14 164.64 415.37 163.26C414.6 161.88 414.22 160.29 414.22 158.48C414.22 156.67 414.6 155.09 415.37 153.74C416.14 152.39 417.2 151.32 418.56 150.55C419.91 149.78 421.47 149.39 423.22 149.39C424.76 149.39 426.13 149.63 427.32 150.11C428.51 150.59 429.56 151.33 430.47 152.34L438.28 144.53C436.31 142.46 434.07 140.9 431.55 139.87C429.03 138.83 426.25 138.32 423.22 138.32C419.18 138.32 415.54 139.2 412.3 140.95C409.06 142.7 406.49 145.11 404.61 148.16C402.72 151.22 401.78 154.68 401.78 158.56C401.78 162.44 402.71 165.84 404.57 168.92C406.43 172 408.98 174.42 412.22 176.17V176.16Z" fill="#27277C"/>
<path d="M481.71 177.92V139.19H469.76V142.42C468.71 141.42 467.52 140.57 466.13 139.91C464.03 138.9 461.68 138.4 459.08 138.4C455.52 138.4 452.35 139.28 449.56 141.03C446.77 142.78 444.57 145.17 442.95 148.2C441.33 151.23 440.52 154.68 440.52 158.56C440.52 162.44 441.33 165.89 442.95 168.92C444.57 171.95 446.78 174.34 449.56 176.09C452.35 177.84 455.52 178.72 459.08 178.72C461.68 178.72 464.05 178.21 466.17 177.21C467.54 176.56 468.73 175.73 469.76 174.75V177.92H481.71ZM461.55 167.72C459.9 167.72 458.41 167.32 457.09 166.53C455.76 165.73 454.73 164.64 453.98 163.26C453.23 161.88 452.86 160.31 452.86 158.56C452.86 156.81 453.24 155.16 454.02 153.78C454.79 152.4 455.83 151.32 457.13 150.55C458.43 149.78 459.93 149.39 461.63 149.39C463.33 149.39 464.83 149.78 466.13 150.55C467.43 151.32 468.44 152.4 469.16 153.78C469.88 155.16 470.24 156.76 470.24 158.56C470.24 161.22 469.44 163.41 467.85 165.13C466.26 166.86 464.16 167.72 461.56 167.72H461.55Z" fill="#27277C"/>
<path d="M508.01 177.92V149.55H516.78V139.19H508.01V123.17H495.82V139.19H487.05V149.55H495.82V177.92H508.01Z" fill="#27277C"/>
<path d="M532.96 122.37C531.74 121.09 530.17 120.46 528.26 120.46C526.35 120.46 524.77 121.1 523.52 122.37C522.27 123.64 521.65 125.24 521.65 127.15C521.65 129.06 522.27 130.59 523.52 131.89C524.77 133.19 526.35 133.84 528.26 133.84C530.17 133.84 531.74 133.19 532.96 131.89C534.18 130.59 534.79 129.01 534.79 127.15C534.79 125.29 534.18 123.64 532.96 122.37Z" fill="#27277C"/>
<path d="M534.31 139.19H522.12V177.92H534.31V139.19Z" fill="#27277C"/>
<path d="M572.4 140.94C569.21 139.19 565.6 138.31 561.56 138.31C557.52 138.31 553.91 139.2 550.72 140.98C547.53 142.76 545.01 145.16 543.15 148.19C541.29 151.22 540.36 154.64 540.36 158.47C540.36 162.3 541.29 165.75 543.15 168.83C545.01 171.91 547.55 174.34 550.76 176.12C553.97 177.9 557.57 178.79 561.56 178.79C565.55 178.79 569.21 177.9 572.4 176.12C575.59 174.34 578.11 171.91 579.97 168.83C581.83 165.75 582.76 162.3 582.76 158.47C582.76 154.64 581.83 151.21 579.97 148.15C578.11 145.1 575.59 142.69 572.4 140.94ZM569.25 163.29C568.53 164.7 567.51 165.79 566.18 166.56C564.85 167.33 563.31 167.72 561.56 167.72C559.81 167.72 558.35 167.34 557.02 166.56C555.69 165.79 554.66 164.7 553.91 163.29C553.16 161.88 552.79 160.3 552.79 158.55C552.79 156.8 553.16 155.15 553.91 153.77C554.65 152.39 555.69 151.31 557.02 150.54C558.35 149.77 559.86 149.38 561.56 149.38C563.26 149.38 564.84 149.77 566.14 150.54C567.44 151.31 568.46 152.37 569.21 153.73C569.95 155.09 570.33 156.67 570.33 158.47C570.33 160.27 569.97 161.88 569.25 163.29Z" fill="#27277C"/>
<path d="M619.46 140.42C617.25 139.06 614.72 138.39 611.85 138.39C608.98 138.39 606.2 139.02 603.84 140.26C602.79 140.82 601.86 141.49 601.01 142.25V139.19H588.82V177.92H601.01V155.85C601.01 154.52 601.3 153.34 601.89 152.3C602.47 151.26 603.27 150.47 604.28 149.91C605.29 149.35 606.46 149.07 607.79 149.07C609.7 149.07 611.28 149.69 612.53 150.94C613.78 152.19 614.4 153.82 614.4 155.84V177.91H626.59V153.13C626.59 150.47 625.95 148.03 624.68 145.8C623.41 143.57 621.66 141.78 619.46 140.42Z" fill="#27277C"/>
<path d="M661.26 142.41C660.21 141.41 659.02 140.56 657.63 139.9C655.53 138.89 653.18 138.39 650.58 138.39C647.02 138.39 643.85 139.27 641.06 141.02C638.27 142.77 636.07 145.16 634.45 148.19C632.83 151.22 632.02 154.67 632.02 158.55C632.02 162.43 632.83 165.88 634.45 168.91C636.07 171.94 638.28 174.33 641.06 176.08C643.85 177.83 647.02 178.71 650.58 178.71C653.18 178.71 655.549 178.2 657.669 177.2C659.039 176.55 660.23 175.72 661.26 174.74V177.91H673.21V139.18H661.26V142.41ZM653.049 167.72C651.399 167.72 649.91 167.32 648.59 166.53C647.26 165.73 646.229 164.64 645.479 163.26C644.729 161.88 644.359 160.31 644.359 158.56C644.359 156.81 644.74 155.16 645.52 153.78C646.29 152.4 647.33 151.32 648.63 150.55C649.93 149.78 651.43 149.39 653.13 149.39C654.83 149.39 656.33 149.78 657.63 150.55C658.93 151.32 659.939 152.4 660.659 153.78C661.379 155.16 661.74 156.76 661.74 158.56C661.74 161.22 660.939 163.41 659.349 165.13C657.759 166.86 655.66 167.72 653.06 167.72H653.049Z" fill="#27277C"/>
<path d="M694.01 120.06H681.82V177.92H694.01V120.06Z" fill="#27277C"/>
<path d="M310.3 228.2V217.28H262.56V228.2H280.17V273.55H292.68V228.2H310.3Z" fill="#27277C"/>
<path d="M335.52 234.86C334.11 234.3 332.48 234.02 330.62 234.02C326.37 234.02 323.05 235.27 320.66 237.77V234.82H308.47V273.55H320.66V252.27C320.66 249.77 321.26 247.9 322.45 246.65C323.64 245.4 325.25 244.78 327.27 244.78C328.28 244.78 329.18 244.94 329.98 245.26C330.78 245.58 331.44 246.03 331.97 246.61L339.22 237.45C338.16 236.28 336.92 235.42 335.51 234.86H335.52Z" fill="#27277C"/>
<path d="M368.23 238.04C367.18 237.04 365.98 236.19 364.6 235.53C362.5 234.52 360.15 234.02 357.55 234.02C353.99 234.02 350.82 234.9 348.03 236.65C345.24 238.4 343.04 240.79 341.42 243.82C339.8 246.85 338.99 250.3 338.99 254.18C338.99 258.06 339.8 261.51 341.42 264.54C343.04 267.57 345.25 269.96 348.03 271.71C350.82 273.46 353.99 274.34 357.55 274.34C360.15 274.34 362.52 273.83 364.64 272.83C366.01 272.18 367.2 271.35 368.23 270.37V273.54H380.18V234.81H368.23V238.04ZM360.02 263.35C358.37 263.35 356.88 262.95 355.56 262.16C354.23 261.36 353.19 260.27 352.45 258.89C351.71 257.51 351.33 255.94 351.33 254.19C351.33 252.44 351.71 250.79 352.49 249.41C353.26 248.03 354.3 246.95 355.6 246.18C356.9 245.41 358.4 245.02 360.1 245.02C361.8 245.02 363.3 245.41 364.6 246.18C365.9 246.95 366.91 248.03 367.63 249.41C368.35 250.79 368.71 252.39 368.71 254.19C368.71 256.85 367.91 259.04 366.32 260.76C364.73 262.49 362.63 263.35 360.02 263.35Z" fill="#27277C"/>
<path d="M406.01 258.79L397.72 234.82H384.57L400.99 273.55L410.79 273.47L427.2 234.82H414.29L406.01 258.79Z" fill="#27277C"/>
<path d="M458.92 236.41C456 234.76 452.62 233.94 448.8 233.94C444.98 233.94 441.33 234.82 438.2 236.57C435.06 238.32 432.58 240.73 430.75 243.78C428.92 246.84 428 250.3 428 254.18C428 258.06 428.93 261.54 430.79 264.62C432.65 267.7 435.21 270.11 438.48 271.83C441.75 273.56 445.48 274.42 449.68 274.42C452.92 274.42 455.9 273.86 458.61 272.75C461.32 271.63 463.63 269.96 465.54 267.73L458.85 261.04C457.68 262.37 456.33 263.36 454.79 264.03C453.25 264.69 451.52 265.03 449.61 265.03C447.54 265.03 445.75 264.59 444.23 263.71C442.72 262.83 441.55 261.59 440.72 259.96C440.45 259.43 440.24 258.84 440.06 258.23L467.78 258.16C467.99 257.15 468.14 256.26 468.22 255.49C468.3 254.72 468.34 253.99 468.34 253.3C468.34 249.53 467.5 246.18 465.83 243.26C464.16 240.34 461.86 238.05 458.94 236.41H458.92ZM443.9 244.58C445.31 243.7 446.97 243.27 448.88 243.27C450.69 243.27 452.21 243.66 453.46 244.43C454.71 245.2 455.65 246.32 456.29 247.78C456.56 248.39 456.76 249.08 456.92 249.83L440.04 249.88C440.2 249.33 440.39 248.79 440.63 248.3C441.4 246.71 442.49 245.47 443.9 244.59V244.58Z" fill="#27277C"/>
<path d="M486.41 215.69H474.22V273.55H486.41V215.69Z" fill="#27277C"/>
<path d="M529.37 217.28L507.06 273.54H520.05L523.79 263.34H545.84L549.53 273.54H562.76L540.69 217.28H529.37ZM527.53 253.15L534.89 233.08L542.15 253.15H527.53Z" fill="#27277C"/>
<path d="M580.45 215.69H568.26V273.55H580.45V215.69Z" fill="#27277C"/>
<path d="M601.25 215.69H589.06V273.55H601.25V215.69Z" fill="#27277C"/>
<path d="M615.99 216.09C614.08 216.09 612.5 216.73 611.25 218C610 219.27 609.38 220.87 609.38 222.78C609.38 224.69 610 226.22 611.25 227.52C612.5 228.82 614.08 229.47 615.99 229.47C617.9 229.47 619.47 228.82 620.69 227.52C621.91 226.22 622.52 224.64 622.52 222.78C622.52 220.92 621.91 219.27 620.69 218C619.47 216.73 617.9 216.09 615.99 216.09Z" fill="#27277C"/>
<path d="M622.05 234.82H609.86V273.55H622.05V234.82Z" fill="#27277C"/>
<path d="M657.51 238.04C656.46 237.04 655.27 236.19 653.88 235.53C651.78 234.52 649.43 234.02 646.83 234.02C643.27 234.02 640.1 234.9 637.31 236.65C634.52 238.4 632.32 240.79 630.7 243.82C629.08 246.85 628.27 250.3 628.27 254.18C628.27 258.06 629.08 261.51 630.7 264.54C632.32 267.57 634.53 269.96 637.31 271.71C640.1 273.46 643.27 274.34 646.83 274.34C649.43 274.34 651.799 273.83 653.919 272.83C655.289 272.18 656.48 271.35 657.51 270.37V273.54H669.46V234.81H657.51V238.04ZM649.299 263.35C647.649 263.35 646.16 262.95 644.84 262.16C643.51 261.36 642.479 260.27 641.729 258.89C640.979 257.51 640.609 255.94 640.609 254.19C640.609 252.44 640.99 250.79 641.77 249.41C642.54 248.03 643.58 246.95 644.88 246.18C646.18 245.41 647.68 245.02 649.38 245.02C651.08 245.02 652.58 245.41 653.88 246.18C655.18 246.95 656.189 248.03 656.909 249.41C657.629 250.79 657.99 252.39 657.99 254.19C657.99 256.85 657.189 259.04 655.599 260.76C654.009 262.49 651.91 263.35 649.31 263.35H649.299Z" fill="#27277C"/>
<path d="M708.71 236.05C706.5 234.7 703.97 234.02 701.1 234.02C698.23 234.02 695.45 234.64 693.09 235.89C692.04 236.45 691.11 237.12 690.26 237.88V234.81H678.07V273.54H690.26V251.47C690.26 250.14 690.55 248.96 691.14 247.92C691.72 246.88 692.52 246.09 693.53 245.53C694.54 244.97 695.71 244.69 697.04 244.69C698.95 244.69 700.53 245.31 701.78 246.56C703.03 247.81 703.65 249.44 703.65 251.46V273.53H715.84V248.75C715.84 246.09 715.2 243.65 713.93 241.42C712.66 239.19 710.91 237.4 708.71 236.04V236.05Z" fill="#27277C"/>
<path d="M746.81 262.51C745.56 263.07 744.14 263.35 742.55 263.35C740.85 263.35 739.31 262.95 737.93 262.16C736.55 261.36 735.47 260.27 734.7 258.89C733.93 257.51 733.54 255.92 733.54 254.11C733.54 252.3 733.92 250.72 734.7 249.37C735.47 248.02 736.53 246.95 737.89 246.18C739.24 245.41 740.8 245.02 742.55 245.02C744.09 245.02 745.46 245.26 746.65 245.74C747.85 246.22 748.89 246.96 749.8 247.97L757.61 240.16C755.64 238.09 753.4 236.53 750.88 235.5C748.36 234.46 745.58 233.95 742.55 233.95C738.51 233.95 734.87 234.83 731.63 236.58C728.39 238.33 725.83 240.74 723.94 243.79C722.05 246.85 721.11 250.31 721.11 254.19C721.11 258.07 722.04 261.47 723.9 264.55C725.76 267.63 728.31 270.05 731.55 271.8C734.79 273.55 738.4 274.43 742.39 274.43C745.52 274.43 748.37 273.88 750.92 272.8C753.47 271.71 755.75 270.1 757.77 267.98L750.04 260.17C749.14 261.18 748.06 261.96 746.81 262.52V262.51Z" fill="#27277C"/>
<path d="M797.49 243.26C795.82 240.34 793.52 238.05 790.6 236.41C787.68 234.76 784.3 233.94 780.48 233.94C776.66 233.94 773.01 234.82 769.88 236.57C766.74 238.32 764.26 240.73 762.43 243.78C760.6 246.84 759.68 250.3 759.68 254.18C759.68 258.06 760.61 261.54 762.47 264.62C764.33 267.7 766.89 270.11 770.16 271.83C773.43 273.56 777.16 274.42 781.36 274.42C784.6 274.42 787.58 273.86 790.29 272.75C793 271.63 795.31 269.96 797.22 267.73L790.53 261.04C789.36 262.37 788.01 263.36 786.47 264.03C784.93 264.69 783.2 265.03 781.29 265.03C779.22 265.03 777.43 264.59 775.91 263.71C774.4 262.83 773.23 261.59 772.4 259.96C772.13 259.43 771.92 258.84 771.74 258.23L799.46 258.16C799.67 257.15 799.82 256.26 799.9 255.49C799.98 254.72 800.02 253.99 800.02 253.3C800.02 249.53 799.18 246.18 797.51 243.26H797.49ZM775.57 244.58C776.98 243.7 778.64 243.27 780.55 243.27C782.36 243.27 783.88 243.66 785.13 244.43C786.38 245.2 787.32 246.32 787.96 247.78C788.23 248.39 788.43 249.08 788.59 249.83L771.71 249.88C771.87 249.33 772.06 248.79 772.3 248.3C773.07 246.71 774.16 245.47 775.57 244.59V244.58Z" fill="#27277C"/>
<path d="M102.98 0C46.2 0 0 46.2 0 102.98V195.87C0 252.66 46.2 298.85 102.98 298.85C159.76 298.85 205.96 252.65 205.96 195.87V102.98C205.96 46.2 159.76 0 102.98 0ZM200.32 195.87C200.32 249.55 156.65 293.21 102.98 293.21C49.31 293.21 5.64 249.55 5.64 195.87V102.98C5.64 49.3 49.3 5.64 102.98 5.64C156.66 5.64 200.32 49.31 200.32 102.98V195.87Z" fill="#27277C"/>
<path d="M102.98 14.17C54.0099 14.17 14.1699 54.01 14.1699 102.98V195.87C14.1699 244.84 54.0099 284.68 102.98 284.68C151.95 284.68 191.79 244.84 191.79 195.87V102.98C191.79 54.01 151.95 14.17 102.98 14.17ZM83.3099 160.12L27.4399 121.5C52.5499 120.52 75.3999 136.41 83.3099 160.12ZM82.2599 166.24C71.2699 166.98 60.4399 164.5 50.8599 159.09L64.3799 153.88L82.2499 166.24H82.2599ZM58.7699 150.01L44.9999 155.31C35.0799 148 27.9499 137.89 24.4299 126.26L58.7699 150V150.01ZM100.16 205.33V242.29H88.4999C86.6499 235.86 78.5699 231.16 68.5899 231.16C57.1999 231.16 48.2799 237.29 48.2799 245.11C48.2799 252.93 57.1999 259.06 68.5899 259.06C78.5699 259.06 86.6499 254.35 88.4999 247.93H100.16V278.99C55.5999 277.5 19.7999 240.79 19.7999 195.87V130.23C23.9699 142.29 31.7299 152.75 42.3099 160.34C42.5099 160.49 42.7199 160.62 42.9299 160.77C42.9799 160.81 43.0299 160.84 43.0799 160.87C53.5999 168.18 65.8499 172.01 78.4499 172.01C81.8599 172.01 85.2899 171.73 88.7099 171.17L88.9299 170.87L100.16 178.63V205.34V205.33ZM83.2699 245.12C83.2699 249.63 76.5499 253.43 68.5899 253.43C60.6299 253.43 53.9099 249.62 53.9099 245.12C53.9099 240.62 60.6299 236.81 68.5899 236.81C76.5499 236.81 83.2699 240.62 83.2699 245.12ZM100.16 119.93V171.77L90.4999 165.09C87.2799 149.87 78.6099 136.58 65.8799 127.46C61.5099 124.33 56.8199 121.81 51.9299 119.93H100.16ZM84.9699 99.89C83.4099 99.89 82.1499 98.63 82.1499 97.07C82.1499 95.51 83.4099 94.25 84.9699 94.25H121C122.56 94.25 123.82 95.51 123.82 97.07C123.82 98.63 122.56 99.89 121 99.89H84.9699ZM186.16 195.87C186.16 240.79 150.37 277.5 105.8 278.99V225.66H116.87C118.72 232.09 126.8 236.79 136.78 236.79C148.17 236.79 157.09 230.66 157.09 222.84C157.09 215.02 148.17 208.89 136.78 208.89C126.8 208.89 118.72 213.6 116.87 220.02H105.8V206.77L117.03 199.01L117.25 199.31C120.68 199.88 124.11 200.15 127.52 200.15C140.11 200.15 152.36 196.32 162.89 189.01C162.94 188.98 162.99 188.94 163.04 188.91C163.25 188.77 163.46 188.63 163.66 188.48C174.24 180.89 182 170.43 186.17 158.37V195.85L186.16 195.87ZM122.1 222.85C122.1 218.34 128.82 214.54 136.78 214.54C144.74 214.54 151.46 218.35 151.46 222.85C151.46 227.35 144.74 231.16 136.78 231.16C128.82 231.16 122.1 227.35 122.1 222.85ZM147.19 178.17L181.53 154.43C178.01 166.05 170.88 176.17 160.96 183.48L147.19 178.18V178.17ZM155.1 187.26C145.52 192.66 134.69 195.14 123.7 194.41L141.57 182.05L155.09 187.26H155.1ZM122.65 188.28C130.56 164.57 153.4 148.68 178.52 149.66L122.65 188.28ZM186.16 144.75C153.36 139.51 122.31 161.05 115.47 193.25L105.81 199.93V119.93H186.17V144.75H186.16Z" fill="#27277C"/>
</g>
<defs>
<clipPath id="clip0_2_269">
<rect width="800" height="298.85" fill="white"/>
</clipPath>
</defs>
</svg>
